# This file uses centimeters as units for non-parametric coordinates.

v 0.211857 0.000000 -0.215937
v 0.195984 0.000000 -0.247092
v 0.171257 0.000000 -0.271816
v 0.140103 0.000000 -0.287692
v 0.105567 0.000000 -0.293160
v 0.071032 0.000000 -0.287692
v 0.039877 0.000000 -0.271816
v 0.015153 0.000000 -0.247092
v -0.000723 0.000000 -0.215937
v -0.006193 0.000000 -0.181402
v -0.000723 0.000000 -0.146864
v 0.015153 0.000000 -0.115710
v 0.039877 0.000000 -0.090985
v 0.071032 0.000000 -0.075110
v 0.105567 0.000000 -0.069641
v 0.140103 0.000000 -0.075110
v 0.171257 0.000000 -0.090985
v 0.195982 0.000000 -0.115710
v 0.211857 0.000000 -0.146864
v 0.217328 0.000000 -0.181402
v 0.105567 0.432090 -0.181402
vt 0.737764 0.172746
vt 0.750000 0.250000
vt 0.737764 0.327254
vt 0.702254 0.396946
vt 0.646946 0.452254
vt 0.577254 0.487764
vt 0.500000 0.500000
vt 0.422746 0.487764
vt 0.353054 0.452254
vt 0.297746 0.396946
vt 0.262236 0.327254
vt 0.250000 0.250000
vt 0.262236 0.172746
vt 0.297746 0.103054
vt 0.353054 0.047746
vt 0.422746 0.012236
vt 0.500000 -0.000000
vt 0.577254 0.012236
vt 0.646946 0.047746
vt 0.702254 0.103054
vt 0.250000 0.500000
vt 0.275000 0.500000
vt 0.500000 1.000000
vt 0.300000 0.500000
vt 0.325000 0.500000
vt 0.350000 0.500000
vt 0.375000 0.500000
vt 0.400000 0.500000
vt 0.425000 0.500000
vt 0.450000 0.500000
vt 0.475000 0.500000
vt 0.500000 0.500000
vt 0.525000 0.500000
vt 0.550000 0.500000
vt 0.575000 0.500000
vt 0.600000 0.500000
vt 0.625000 0.500000
vt 0.650000 0.500000
vt 0.675000 0.500000
vt 0.700000 0.500000
vt 0.725000 0.500000
vt 0.750000 0.500000
vn 0.000000 -1.000000 0.000000
vn 0.000000 -1.000000 0.000000
vn 0.000000 -1.000000 0.000000
vn 0.000000 -1.000000 0.000000
vn 0.000000 -1.000000 0.000000
vn 0.000000 -1.000000 0.000000
vn 0.000000 -1.000000 0.000000
vn 0.000000 -1.000000 0.000000
vn 0.000000 -1.000000 0.000000
vn 0.000000 -1.000000 0.000000
vn 0.000000 -1.000000 0.000000
vn 0.000000 -1.000000 0.000000
vn 0.000000 -1.000000 0.000000
vn 0.000000 -1.000000 0.000000
vn 0.000000 -1.000000 0.000000
vn 0.000000 -1.000000 0.000000
vn 0.000000 -1.000000 0.000000
vn 0.000000 -1.000000 0.000000
vn 0.000000 -1.000000 0.000000
vn 0.000000 -1.000000 0.000000
vn 0.920756 0.250410 -0.299171
vn 0.783242 0.250410 -0.569058
vn -0.000000 1.000000 -0.000002
vn 0.783242 0.250410 -0.569058
vn 0.569058 0.250410 -0.783242
vn -0.000000 1.000000 -0.000002
vn 0.569058 0.250410 -0.783242
vn 0.299172 0.250410 -0.920756
vn -0.000000 1.000000 -0.000002
vn 0.299172 0.250410 -0.920756
vn -0.000000 0.250410 -0.968140
vn -0.000000 1.000000 -0.000002
vn -0.000000 0.250410 -0.968140
vn -0.299172 0.250410 -0.920756
vn -0.000000 1.000000 -0.000002
vn -0.299172 0.250410 -0.920756
vn -0.569059 0.250410 -0.783241
vn -0.000000 1.000000 -0.000002
vn -0.569059 0.250410 -0.783241
vn -0.783242 0.250410 -0.569058
vn -0.000000 1.000000 -0.000002
vn -0.783242 0.250410 -0.569058
vn -0.920756 0.250410 -0.299172
vn -0.000000 1.000000 -0.000002
vn -0.920756 0.250410 -0.299172
vn -0.968140 0.250410 0.000000
vn -0.000000 1.000000 -0.000002
vn -0.968140 0.250410 0.000000
vn -0.920756 0.250410 0.299172
vn -0.000000 1.000000 -0.000002
vn -0.920756 0.250410 0.299172
vn -0.783242 0.250410 0.569058
vn -0.000000 1.000000 -0.000002
vn -0.783242 0.250410 0.569058
vn -0.569058 0.250410 0.783242
vn -0.000000 1.000000 -0.000002
vn -0.569058 0.250410 0.783242
vn -0.299172 0.250410 0.920756
vn -0.000000 1.000000 -0.000002
vn -0.299172 0.250410 0.920756
vn 0.000000 0.250410 0.968140
vn -0.000000 1.000000 -0.000002
vn 0.000000 0.250410 0.968140
vn 0.299172 0.250410 0.920756
vn -0.000000 1.000000 -0.000002
vn 0.299172 0.250410 0.920756
vn 0.569058 0.250410 0.783242
vn -0.000000 1.000000 -0.000002
vn 0.569058 0.250410 0.783242
vn 0.783242 0.250410 0.569058
vn -0.000000 1.000000 -0.000002
vn 0.783242 0.250410 0.569058
vn 0.920756 0.250410 0.299172
vn -0.000000 1.000000 -0.000002
vn 0.920756 0.250410 0.299172
vn 0.968140 0.250410 0.000001
vn -0.000000 1.000000 -0.000002
vn 0.968140 0.250410 0.000001
vn 0.920756 0.250410 -0.299171
vn -0.000000 1.000000 -0.000002
f 1/1/1 20/2/2 19/3/3 18/4/4 17/5/5 16/6/6 15/7/7 14/8/8 13/9/9 12/10/10 11/11/11 10/12/12 9/13/13 8/14/14 7/15/15 6/16/16 5/17/17 4/18/18 3/19/19 2/20/20
f 1/21/21 2/22/22 21/23/23
f 2/22/24 3/24/25 21/23/26
f 3/24/27 4/25/28 21/23/29
f 4/25/30 5/26/31 21/23/32
f 5/26/33 6/27/34 21/23/35
f 6/27/36 7/28/37 21/23/38
f 7/28/39 8/29/40 21/23/41
f 8/29/42 9/30/43 21/23/44
f 9/30/45 10/31/46 21/23/47
f 10/31/48 11/32/49 21/23/50
f 11/32/51 12/33/52 21/23/53
f 12/33/54 13/34/55 21/23/56
f 13/34/57 14/35/58 21/23/59
f 14/35/60 15/36/61 21/23/62
f 15/36/63 16/37/64 21/23/65
f 16/37/66 17/38/67 21/23/68
f 17/38/69 18/39/70 21/23/71
f 18/39/72 19/40/73 21/23/74
f 19/40/75 20/41/76 21/23/77
f 20/41/78 1/42/79 21/23/80
