# This file uses centimeters as units for non-parametric coordinates.

mtllib lightscene_C.mtl
g default
v -0.310093 0.000000 0.096800
v -0.419862 0.000000 0.035592
v -0.310093 0.125680 0.096800
v -0.419862 0.125680 0.035592
v -0.371302 0.125680 0.206569
v -0.481071 0.125680 0.145362
v -0.371302 0.000000 0.206569
v -0.481071 0.000000 0.145362
vt 0.375000 0.000000
vt 0.625000 0.000000
vt 0.625000 0.250000
vt 0.375000 0.250000
vt 0.625000 0.500000
vt 0.375000 0.500000
vt 0.625000 0.750000
vt 0.375000 0.750000
vt 0.625000 1.000000
vt 0.375000 1.000000
vt 0.875000 0.000000
vt 0.875000 0.250000
vt 0.125000 0.000000
vt 0.125000 0.250000
vn 0.487012 0.000000 -0.873395
vn 0.487012 0.000000 -0.873395
vn 0.487012 0.000000 -0.873395
vn 0.487012 0.000000 -0.873395
vn 0.000000 1.000000 0.000000
vn 0.000000 1.000000 0.000000
vn 0.000000 1.000000 0.000000
vn 0.000000 1.000000 0.000000
vn -0.487012 0.000000 0.873395
vn -0.487012 0.000000 0.873395
vn -0.487012 0.000000 0.873395
vn -0.487012 0.000000 0.873395
vn 0.000000 -1.000000 0.000000
vn 0.000000 -1.000000 0.000000
vn 0.000000 -1.000000 0.000000
vn 0.000000 -1.000000 0.000000
vn -0.873395 0.000000 -0.487012
vn -0.873395 0.000000 -0.487012
vn -0.873395 0.000000 -0.487012
vn -0.873395 0.000000 -0.487012
vn 0.873395 0.000000 0.487012
vn 0.873395 0.000000 0.487012
vn 0.873395 0.000000 0.487012
vn 0.873395 0.000000 0.487012
s off
g lightscene_D_Mesh
usemtl initialShadingGroup
f 1/1/1 2/2/2 4/3/3 3/4/4
f 3/4/5 4/3/6 6/5/7 5/6/8
f 5/6/9 6/5/10 8/7/11 7/8/12
f 7/8/13 8/7/14 2/9/15 1/10/16
f 2/2/17 8/11/18 6/12/19 4/3/20
f 7/13/21 1/1/22 3/4/23 5/14/24
