# This file uses centimeters as units for non-parametric coordinates.

v -0.256190 0.000000 0.137891
v -0.315127 0.000000 0.204620
v -0.269877 0.000000 0.281293
v -0.182974 0.000000 0.261951
v -0.174515 0.000000 0.173324
v -0.239737 0.090823 0.211816
vt 0.577254 0.012236
vt 0.750000 0.250000
vt 0.577254 0.487764
vt 0.297746 0.396946
vt 0.297746 0.103054
vt 0.250000 0.500000
vt 0.350000 0.500000
vt 0.500000 1.000000
vt 0.450000 0.500000
vt 0.550000 0.500000
vt 0.650000 0.500000
vt 0.750000 0.500000
vn 0.000000 -1.000000 0.000000
vn 0.000000 -1.000000 0.000000
vn 0.000000 -1.000000 0.000000
vn 0.000000 -1.000000 0.000000
vn 0.000000 -1.000000 0.000000
vn -0.621343 0.559247 -0.548795
vn -0.621343 0.559247 -0.548795
vn -0.621343 0.559247 -0.548795
vn -0.713940 0.559247 0.421346
vn -0.713940 0.559247 0.421346
vn -0.713940 0.559247 0.421346
vn 0.180104 0.559247 0.809200
vn 0.180104 0.559247 0.809200
vn 0.180104 0.559247 0.809200
vn 0.825250 0.559247 0.078768
vn 0.825250 0.559247 0.078768
vn 0.825250 0.559247 0.078768
vn 0.329929 0.559247 -0.760519
vn 0.329929 0.559247 -0.760519
vn 0.329929 0.559247 -0.760519
f 1/1/1 5/2/2 4/3/3 3/4/4 2/5/5
f 1/6/6 2/7/7 6/8/8
f 2/7/9 3/9/10 6/8/11
f 3/9/12 4/10/13 6/8/14
f 4/10/15 5/11/16 6/8/17
f 5/11/18 1/12/19 6/8/20
